<?xml version="1.0" encoding="UTF-8" standalone="no"?>
<svg
   xmlns:dc="http://purl.org/dc/elements/1.1/"
   xmlns:cc="http://creativecommons.org/ns#"
   xmlns:rdf="http://www.w3.org/1999/02/22-rdf-syntax-ns#"
   xmlns:svg="http://www.w3.org/2000/svg"
   xmlns="http://www.w3.org/2000/svg"
   xmlns:sodipodi="http://sodipodi.sourceforge.net/DTD/sodipodi-0.dtd"
   xmlns:inkscape="http://www.inkscape.org/namespaces/inkscape"
   width="774.11511"
   height="774.11517"
   viewBox="0 0 774.11511 774.11517"
   version="1.1"
   id="SVGRoot"
   sodipodi:docname="drone-icon-vector-tutorial.svg"
   inkscape:version="1.0.1 (1.0.1+r75)">
  <defs
     id="defs1428" />
  <sodipodi:namedview
     id="base"
     pagecolor="#ffffff"
     bordercolor="#666666"
     borderopacity="1.0"
     inkscape:pageopacity="0.0"
     inkscape:pageshadow="2"
     inkscape:zoom="0.25"
     inkscape:document-units="px"
     inkscape:current-layer="layer1"
     showgrid="false"
     borderlayer="true"
     inkscape:showpageshadow="false"
     inkscape:document-rotation="0" />
  <metadata
     id="metadata1431">
    <rdf:RDF>
      <cc:Work
         rdf:about="">
        <dc:format>image/svg+xml</dc:format>
        <dc:type
           rdf:resource="http://purl.org/dc/dcmitype/StillImage" />
        <dc:title />
      </cc:Work>
    </rdf:RDF>
  </metadata>
  <g
     inkscape:label="Layer 1"
     inkscape:groupmode="layer"
     id="layer1"
     transform="translate(-511.47689,-121.75366)">
    <g
       id="g2009"
       transform="matrix(1.2347448,0,0,1.2347448,-251.74232,-129.42901)">
      <circle
         style="opacity:1;fill:#ffffff;fill-opacity:1;stroke:#162d50;stroke-width:12;stroke-linecap:round;stroke-linejoin:round;stop-color:#000000"
         id="path1134"
         cx="743.48822"
         cy="516.90051"
         r="105.75912" />
      <path
         id="circle1260"
         style="opacity:1;fill:none;fill-opacity:1;stroke:#162d50;stroke-width:6;stroke-linecap:round;stroke-linejoin:round;stroke-miterlimit:4;stroke-dasharray:none;stop-color:#000000"
         d="m 785.39827,450.98526 a 78.110634,78.110634 0 0 1 36.2006,65.91525 v 0 a 78.110634,78.110634 0 0 1 -36.2008,65.91538" />
      <path
         id="circle1258"
         style="opacity:1;fill:none;fill-opacity:1;stroke:#162d50;stroke-width:6;stroke-linecap:round;stroke-linejoin:round;stroke-miterlimit:4;stroke-dasharray:none;stop-color:#000000"
         d="m 793.17301,443.21026 a 88.875366,88.875366 0 0 1 39.19059,73.69025 v 0 a 88.875366,88.875366 0 0 1 -39.19027,73.69005" />
      <path
         id="path1198"
         style="opacity:1;fill:none;fill-opacity:1;stroke:#162d50;stroke-width:0;stroke-linecap:round;stroke-linejoin:round;stroke-miterlimit:4;stroke-dasharray:none;stop-color:#000000"
         d="m 668.50378,615.85434 a 124.15526,124.15526 0 0 1 -49.1708,-98.95383 124.15526,124.15526 0 0 1 49.17109,-98.95404" />
      <path
         id="path1239"
         style="opacity:1;fill:none;fill-opacity:1;stroke:#162d50;stroke-width:6;stroke-linecap:round;stroke-linejoin:round;stroke-miterlimit:4;stroke-dasharray:none;stop-color:#000000"
         d="m 663.70138,609.68141 a 122.36931,122.36931 0 0 1 -42.58239,-92.7809 122.36931,122.36931 0 0 1 42.58162,-92.78024" />
      <path
         id="path1301"
         style="opacity:1;fill:none;fill-opacity:1;stroke:#162d50;stroke-width:6;stroke-linecap:round;stroke-linejoin:round;stroke-miterlimit:4;stroke-dasharray:none;stop-color:#000000"
         d="M 693.80255,590.59015 A 88.875366,88.875366 0 0 1 654.61287,516.90051 88.875366,88.875366 0 0 1 693.80073,443.2121" />
      <path
         id="path1267"
         style="opacity:1;fill:none;fill-opacity:1;stroke:#162d50;stroke-width:6;stroke-linecap:round;stroke-linejoin:round;stroke-miterlimit:4;stroke-dasharray:none;stop-color:#000000"
         d="m 701.5768,582.81488 a 78.110634,78.110634 0 0 1 -36.1992,-65.91437 78.110634,78.110634 0 0 1 36.19853,-65.91393" />
      <circle
         style="opacity:1;fill:#ffffff;fill-opacity:1;stroke:#162d50;stroke-width:12;stroke-linecap:round;stroke-linejoin:round;stop-color:#000000"
         id="circle1425"
         cx="328.79807"
         cy="-931.5907"
         r="105.75912"
         transform="rotate(90)" />
      <path
         id="path1427"
         style="opacity:1;fill:none;fill-opacity:1;stroke:#162d50;stroke-width:6;stroke-linecap:round;stroke-linejoin:round;stroke-miterlimit:4;stroke-dasharray:none;stop-color:#000000"
         d="m 997.50595,370.70809 a 78.110634,78.110634 0 0 1 -65.91525,36.2006 v 0 a 78.110634,78.110634 0 0 1 -65.91538,-36.2008" />
      <path
         id="path1429"
         style="opacity:1;fill:none;fill-opacity:1;stroke:#162d50;stroke-width:6;stroke-linecap:round;stroke-linejoin:round;stroke-miterlimit:4;stroke-dasharray:none;stop-color:#000000"
         d="m 1005.281,378.48283 a 88.875366,88.875366 0 0 1 -73.6903,39.19059 v 0 a 88.875366,88.875366 0 0 1 -73.69005,-39.19027" />
      <path
         id="path1433"
         style="opacity:1;fill:none;fill-opacity:1;stroke:#162d50;stroke-width:0;stroke-linecap:round;stroke-linejoin:round;stroke-miterlimit:4;stroke-dasharray:none;stop-color:#000000"
         d="m 832.63687,253.8136 a 124.15526,124.15526 0 0 1 98.95383,-49.1708 124.15526,124.15526 0 0 1 98.954,49.17109" />
      <path
         id="path1435"
         style="opacity:1;fill:none;fill-opacity:1;stroke:#162d50;stroke-width:6;stroke-linecap:round;stroke-linejoin:round;stroke-miterlimit:4;stroke-dasharray:none;stop-color:#000000"
         d="m 838.8098,249.0112 a 122.36931,122.36931 0 0 1 92.7809,-42.58239 122.36931,122.36931 0 0 1 92.7802,42.58162" />
      <path
         id="path1437"
         style="opacity:1;fill:none;fill-opacity:1;stroke:#162d50;stroke-width:6;stroke-linecap:round;stroke-linejoin:round;stroke-miterlimit:4;stroke-dasharray:none;stop-color:#000000"
         d="m 857.90106,279.11237 a 88.875366,88.875366 0 0 1 73.68964,-39.18968 88.875366,88.875366 0 0 1 73.6884,39.18786" />
      <path
         id="path1439"
         style="opacity:1;fill:none;fill-opacity:1;stroke:#162d50;stroke-width:6;stroke-linecap:round;stroke-linejoin:round;stroke-miterlimit:4;stroke-dasharray:none;stop-color:#000000"
         d="m 865.67633,286.88662 a 78.110634,78.110634 0 0 1 65.91437,-36.1992 78.110634,78.110634 0 0 1 65.91393,36.19853" />
      <circle
         style="opacity:1;fill:#ffffff;fill-opacity:1;stroke:#162d50;stroke-width:12;stroke-linecap:round;stroke-linejoin:round;stop-color:#000000"
         id="circle1387"
         cx="-1119.6931"
         cy="516.90051"
         r="105.75912"
         transform="scale(-1,1)" />
      <path
         id="path1389"
         style="opacity:1;fill:none;fill-opacity:1;stroke:#162d50;stroke-width:6;stroke-linecap:round;stroke-linejoin:round;stroke-miterlimit:4;stroke-dasharray:none;stop-color:#000000"
         d="m 1077.7831,450.98526 a 78.110634,78.110634 0 0 0 -36.2006,65.91525 v 0 a 78.110634,78.110634 0 0 0 36.2008,65.91538" />
      <path
         id="path1391"
         style="opacity:1;fill:none;fill-opacity:1;stroke:#162d50;stroke-width:6;stroke-linecap:round;stroke-linejoin:round;stroke-miterlimit:4;stroke-dasharray:none;stop-color:#000000"
         d="m 1070.0083,443.21026 a 88.875366,88.875366 0 0 0 -39.1905,73.69025 v 0 a 88.875366,88.875366 0 0 0 39.1902,73.69005" />
      <path
         id="path1395"
         style="opacity:1;fill:none;fill-opacity:1;stroke:#162d50;stroke-width:0;stroke-linecap:round;stroke-linejoin:round;stroke-miterlimit:4;stroke-dasharray:none;stop-color:#000000"
         d="m 1194.6776,615.85434 a 124.15526,124.15526 0 0 0 49.1708,-98.95383 124.15526,124.15526 0 0 0 -49.1711,-98.95404" />
      <path
         id="path1397"
         style="opacity:1;fill:none;fill-opacity:1;stroke:#162d50;stroke-width:6;stroke-linecap:round;stroke-linejoin:round;stroke-miterlimit:4;stroke-dasharray:none;stop-color:#000000"
         d="m 1199.48,609.68141 a 122.36931,122.36931 0 0 0 42.5824,-92.7809 122.36931,122.36931 0 0 0 -42.5817,-92.78024" />
      <path
         id="path1399"
         style="opacity:1;fill:none;fill-opacity:1;stroke:#162d50;stroke-width:6;stroke-linecap:round;stroke-linejoin:round;stroke-miterlimit:4;stroke-dasharray:none;stop-color:#000000"
         d="m 1169.3788,590.59015 a 88.875366,88.875366 0 0 0 39.1897,-73.68964 88.875366,88.875366 0 0 0 -39.1879,-73.68841" />
      <path
         id="path1401"
         style="opacity:1;fill:none;fill-opacity:1;stroke:#162d50;stroke-width:6;stroke-linecap:round;stroke-linejoin:round;stroke-miterlimit:4;stroke-dasharray:none;stop-color:#000000"
         d="m 1161.6046,582.81488 a 78.110634,78.110634 0 0 0 36.1992,-65.91437 78.110634,78.110634 0 0 0 -36.1986,-65.91393" />
      <circle
         style="opacity:1;fill:#ffffff;fill-opacity:1;stroke:#162d50;stroke-width:12;stroke-linecap:round;stroke-linejoin:round;stop-color:#000000"
         id="circle1443"
         cx="-705.00299"
         cy="-931.5907"
         r="105.75912"
         transform="matrix(0,-1,-1,0,0,0)" />
      <path
         id="path1445"
         style="opacity:1;fill:none;fill-opacity:1;stroke:#162d50;stroke-width:6;stroke-linecap:round;stroke-linejoin:round;stroke-miterlimit:4;stroke-dasharray:none;stop-color:#000000"
         d="m 997.50594,663.09298 a 78.110634,78.110634 0 0 0 -65.91525,-36.2006 v 0 a 78.110634,78.110634 0 0 0 -65.91538,36.2008" />
      <path
         id="path1447"
         style="opacity:1;fill:none;fill-opacity:1;stroke:#162d50;stroke-width:6;stroke-linecap:round;stroke-linejoin:round;stroke-miterlimit:4;stroke-dasharray:none;stop-color:#000000"
         d="m 1005.2809,655.31824 a 88.875366,88.875366 0 0 0 -73.69021,-39.19059 v 0 a 88.875366,88.875366 0 0 0 -73.69005,39.19027" />
      <path
         id="path1451"
         style="opacity:1;fill:none;fill-opacity:1;stroke:#162d50;stroke-width:0;stroke-linecap:round;stroke-linejoin:round;stroke-miterlimit:4;stroke-dasharray:none;stop-color:#000000"
         d="m 832.63686,779.98747 a 124.15526,124.15526 0 0 0 98.95383,49.1708 124.15526,124.15526 0 0 0 98.95401,-49.17109" />
      <path
         id="path1453"
         style="opacity:1;fill:none;fill-opacity:1;stroke:#162d50;stroke-width:6;stroke-linecap:round;stroke-linejoin:round;stroke-miterlimit:4;stroke-dasharray:none;stop-color:#000000"
         d="m 838.80979,784.78987 a 122.36931,122.36931 0 0 0 92.7809,42.58239 122.36931,122.36931 0 0 0 92.78021,-42.58162" />
      <path
         id="path1455"
         style="opacity:1;fill:none;fill-opacity:1;stroke:#162d50;stroke-width:6;stroke-linecap:round;stroke-linejoin:round;stroke-miterlimit:4;stroke-dasharray:none;stop-color:#000000"
         d="m 857.90105,754.6887 a 88.875366,88.875366 0 0 0 73.68964,39.18968 88.875366,88.875366 0 0 0 73.68841,-39.18786" />
      <path
         id="path1457"
         style="opacity:1;fill:none;fill-opacity:1;stroke:#162d50;stroke-width:6;stroke-linecap:round;stroke-linejoin:round;stroke-miterlimit:4;stroke-dasharray:none;stop-color:#000000"
         d="m 865.67632,746.91445 a 78.110634,78.110634 0 0 0 65.91437,36.1992 78.110634,78.110634 0 0 0 65.91393,-36.19853" />
      <path
         sodipodi:type="star"
         style="opacity:1;fill:#188318;fill-opacity:1;stroke:#162d50;stroke-width:12;stroke-linecap:round;stroke-linejoin:round;stroke-miterlimit:4;stroke-dasharray:none;stroke-opacity:1;stop-color:#000000"
         id="path1095"
         sodipodi:sides="4"
         sodipodi:cx="931.5907"
         sodipodi:cy="516.90051"
         sodipodi:r1="221.83179"
         sodipodi:r2="51.021313"
         sodipodi:arg1="1.5707963"
         sodipodi:arg2="2.3561945"
         inkscape:flatsided="false"
         inkscape:rounded="0.45"
         inkscape:randomized="0"
         d="m 931.5907,738.7323 c -85.15141,0 24.13362,-125.54313 -36.07752,-185.75427 -60.21114,-60.21114 -185.75427,49.0739 -185.75427,-36.07751 0,-85.15141 125.54313,24.13362 185.75427,-36.07752 60.21114,-60.21115 -49.0739,-185.75428 36.07751,-185.75427 85.15141,0 -24.13362,125.54313 36.07752,185.75427 60.21119,60.21114 185.75429,-49.0739 185.75429,36.07751 0,85.15141 -125.5431,-24.13362 -185.75429,36.07752 -60.21113,60.21114 49.07389,185.75427 -36.07751,185.75427 z" />
      <circle
         style="opacity:1;fill:#162d50;fill-opacity:1;stroke:none;stroke-width:0.891324;stroke-linecap:round;stroke-linejoin:round;stop-color:#000000"
         id="circle1136"
         cx="743.48822"
         cy="516.90051"
         r="7.8554673" />
      <circle
         style="opacity:1;fill:#162d50;fill-opacity:1;stroke:none;stroke-width:0.891324;stroke-linecap:round;stroke-linejoin:round;stop-color:#000000"
         id="circle1393"
         cx="-1119.6931"
         cy="516.90051"
         r="7.8554673"
         transform="scale(-1,1)" />
      <circle
         style="opacity:1;fill:#162d50;fill-opacity:1;stroke:none;stroke-width:0.891324;stroke-linecap:round;stroke-linejoin:round;stop-color:#000000"
         id="circle1431"
         cx="328.79807"
         cy="-931.5907"
         r="7.8554673"
         transform="rotate(90)" />
      <circle
         style="opacity:1;fill:#162d50;fill-opacity:1;stroke:none;stroke-width:0.891324;stroke-linecap:round;stroke-linejoin:round;stop-color:#000000"
         id="circle1449"
         cx="-705.00299"
         cy="-931.5907"
         r="7.8554673"
         transform="matrix(0,-1,-1,0,0,0)" />
    </g>
  </g>
</svg>
