<?xml version="1.0" encoding="UTF-8" standalone="no"?>
<svg
   xmlns:dc="http://purl.org/dc/elements/1.1/"
   xmlns:cc="http://creativecommons.org/ns#"
   xmlns:rdf="http://www.w3.org/1999/02/22-rdf-syntax-ns#"
   xmlns:svg="http://www.w3.org/2000/svg"
   xmlns="http://www.w3.org/2000/svg"
   xmlns:sodipodi="http://sodipodi.sourceforge.net/DTD/sodipodi-0.dtd"
   xmlns:inkscape="http://www.inkscape.org/namespaces/inkscape"
   width="1245.0562"
   height="582.90552"
   viewBox="0 0 1245.0562 582.90552"
   version="1.1"
   id="SVGRoot"
   sodipodi:docname="infinite-loop-icon.svg"
   inkscape:version="1.0.1 (1.0.1+r75)">
  <defs
     id="defs1428" />
  <sodipodi:namedview
     id="base"
     pagecolor="#ffffff"
     bordercolor="#666666"
     borderopacity="1.0"
     inkscape:pageopacity="0.0"
     inkscape:pageshadow="2"
     inkscape:zoom="0.25"
     inkscape:document-units="px"
     inkscape:current-layer="layer1"
     showgrid="false"
     borderlayer="true"
     inkscape:showpageshadow="false"
     inkscape:document-rotation="0"
     showborder="true" />
  <metadata
     id="metadata1431">
    <rdf:RDF>
      <cc:Work
         rdf:about="">
        <dc:format>image/svg+xml</dc:format>
        <dc:type
           rdf:resource="http://purl.org/dc/dcmitype/StillImage" />
        <dc:title></dc:title>
      </cc:Work>
    </rdf:RDF>
  </metadata>
  <g
     inkscape:label="Layer 1"
     inkscape:groupmode="layer"
     id="layer1"
     transform="translate(-622.85612,-75.05302)">
    <path
       id="path935"
       style="color:#000000;font-style:normal;font-variant:normal;font-weight:normal;font-stretch:normal;font-size:medium;line-height:normal;font-family:sans-serif;font-variant-ligatures:normal;font-variant-position:normal;font-variant-caps:normal;font-variant-numeric:normal;font-variant-alternates:normal;font-variant-east-asian:normal;font-feature-settings:normal;font-variation-settings:normal;text-indent:0;text-align:start;text-decoration:none;text-decoration-line:none;text-decoration-style:solid;text-decoration-color:#000000;letter-spacing:normal;word-spacing:normal;text-transform:none;writing-mode:lr-tb;direction:ltr;text-orientation:mixed;dominant-baseline:auto;baseline-shift:baseline;text-anchor:start;white-space:normal;shape-padding:0;shape-margin:0;inline-size:0;clip-rule:nonzero;display:inline;overflow:visible;visibility:visible;opacity:1;isolation:auto;mix-blend-mode:normal;color-interpolation:sRGB;color-interpolation-filters:linearRGB;solid-color:#000000;solid-opacity:1;vector-effect:none;fill:#ff0000;fill-opacity:1;fill-rule:nonzero;stroke:#ff0000;stroke-width:75;stroke-linecap:round;stroke-linejoin:bevel;stroke-miterlimit:4;stroke-dasharray:none;stroke-dashoffset:0;stroke-opacity:1;color-rendering:auto;image-rendering:auto;shape-rendering:auto;text-rendering:auto;enable-background:accumulate;stop-color:#000000;stop-opacity:1"
       d="m 914.21006,112.55375 c -65.09101,0 -130.18142,24.77521 -179.72852,74.32227 -99.09407,99.09409 -99.09407,260.36292 0,359.45703 99.0942,99.09412 260.36299,99.09418 359.45696,2e-5 41.8203,-41.82026 134.013,-134.01293 151.4444,-151.44439 17.4315,17.4313 109.6248,109.62341 151.4451,151.44361 99.094,99.09425 260.3648,99.09416 359.459,0 99.0939,-99.09407 99.0939,-260.36292 0,-359.45703 -49.5472,-49.54704 -114.6395,-74.32223 -179.7305,-74.32224 -65.091,-1e-5 -130.1815,24.77521 -179.7285,74.32224 -41.8203,41.82025 -134.013,134.01292 -151.4444,151.44433 -17.4316,-17.43131 -109.6249,-109.62347 -151.4451,-151.44368 -49.547,-49.54707 -114.63745,-74.32228 -179.72846,-74.32228 z m 0,39.75 c 54.77037,0 109.54124,20.9514 151.44534,62.85549 41.8202,41.82015 134.0121,134.01356 151.4436,151.44502 -17.4315,17.43147 -109.6242,109.62411 -151.4444,151.44435 -83.80808,83.80822 -219.08237,83.80818 -302.89059,-1e-5 -83.80813,-83.80814 -83.80813,-219.08249 -10e-6,-302.89062 41.90411,-41.90408 96.67496,-62.85547 151.44531,-62.85547 z m 662.34764,0 c 54.7703,-3e-5 109.5412,20.9514 151.4453,62.85545 83.8081,83.80815 83.8081,219.0825 0,302.89061 -83.8082,83.80819 -219.0806,83.80824 -302.8886,4e-5 -41.8202,-41.82021 -134.014,-134.01393 -151.4454,-151.4453 17.4314,-17.43139 109.6252,-109.62511 151.4454,-151.44531 41.904,-41.90408 96.673,-62.85547 151.4433,-62.85549 z" />
    <path
       id="path929"
       style="color:#000000;font-style:normal;font-variant:normal;font-weight:normal;font-stretch:normal;font-size:medium;line-height:normal;font-family:sans-serif;font-variant-ligatures:normal;font-variant-position:normal;font-variant-caps:normal;font-variant-numeric:normal;font-variant-alternates:normal;font-variant-east-asian:normal;font-feature-settings:normal;font-variation-settings:normal;text-indent:0;text-align:start;text-decoration:none;text-decoration-line:none;text-decoration-style:solid;text-decoration-color:#000000;letter-spacing:normal;word-spacing:normal;text-transform:none;writing-mode:lr-tb;direction:ltr;text-orientation:mixed;dominant-baseline:auto;baseline-shift:baseline;text-anchor:start;white-space:normal;shape-padding:0;shape-margin:0;inline-size:0;clip-rule:nonzero;display:inline;overflow:visible;visibility:visible;opacity:1;isolation:auto;mix-blend-mode:normal;color-interpolation:sRGB;color-interpolation-filters:linearRGB;solid-color:#000000;solid-opacity:1;vector-effect:none;fill:#ffffff;fill-opacity:1;fill-rule:nonzero;stroke:none;stroke-width:40;stroke-linecap:round;stroke-linejoin:bevel;stroke-miterlimit:4;stroke-dasharray:none;stroke-dashoffset:0;stroke-opacity:1;color-rendering:auto;image-rendering:auto;shape-rendering:auto;text-rendering:auto;enable-background:accumulate;stop-color:#000000;stop-opacity:1"
       d="m 1756.2863,186.87466 c -49.5472,-49.54705 -114.6384,-74.32077 -179.7294,-74.32078 -65.091,-1e-5 -130.1824,24.77373 -179.7295,74.32076 l -124.8098,124.80987 28.2442,28.32712 124.8527,-124.85269 c 41.9041,-41.90408 96.672,-62.85516 151.4424,-62.85518 54.7702,-3e-5 109.541,20.95111 151.4451,62.85516 83.8081,83.80815 83.8095,219.08354 0,302.89166 -83.8082,83.80819 -219.0809,83.8068 -302.889,-10e-4 -41.8201,-41.82021 -134.0136,-134.01372 -151.445,-151.44509 l 0.088,-0.0884 -27.6297,-27.62971 v -1.30923 l -0.7416,0.74164 c -17.4316,-17.43131 -109.6249,-109.62216 -151.4452,-151.44237 -49.547,-49.54709 -114.63698,-74.32218 -179.728,-74.32218 -65.091,0 -130.18094,24.77511 -179.72804,74.32217 -99.09407,99.0941 -99.09546,260.36335 -0.001,359.45747 99.09419,99.09412 260.36342,99.09276 359.45744,-10e-4 l 124.9411,-124.94107 -28.3257,-28.24285 -124.8996,124.89965 c -83.80815,83.80822 -219.08215,83.80817 -302.89038,-2e-5 -83.80811,-83.80812 -83.8081,-219.08213 2e-5,-302.89027 41.90411,-41.90408 96.6748,-62.85517 151.44515,-62.85517 l 10e-4,0.001 c 54.77037,0 109.54111,20.95108 151.44521,62.85518 41.8202,41.82015 134.0109,134.01367 151.4423,151.44513 l 28.2843,28.28427 c 17.4315,17.43129 109.6263,109.62358 151.4465,151.44378 99.0941,99.09425 260.3647,99.09417 359.4589,1e-5 99.0939,-99.09407 99.0925,-260.36336 0,-359.45746 z" />
    <path
       style="opacity:0.501362;fill:#000000;stroke:#000000;stroke-width:0.638794px;stroke-linecap:butt;stroke-linejoin:miter;stroke-opacity:1"
       d="m 1211.7367,480.94393 -80.7034,-80.31999 32.804,-34.11518 81.3814,81.14402 z"
       id="path943" />
    <path
       style="opacity:0.501362;fill:#000000;stroke:#000000;stroke-width:0.638794px;stroke-linecap:butt;stroke-linejoin:miter;stroke-opacity:1"
       d="m 1326.7366,365.9441 -80.7035,-80.32 32.804,-34.11517 81.3814,81.14401 z"
       id="path945" />
  </g>
</svg>
